<svg width="40" height="40" viewBox="0 0 40 40" fill="none" xmlns="http://www.w3.org/2000/svg">
<path d="M8 5H32C32.7956 5 33.5587 5.31607 34.1213 5.87868C34.6839 6.44129 35 7.20435 35 8V27C35 27.7956 34.6839 28.5587 34.1213 29.1213C33.5587 29.6839 32.7956 30 32 30H26.7101C26.8987 29.3663 27 28.695 27 28C27 24.134 23.866 21 20 21C16.134 21 13 24.134 13 28C13 28.695 13.1013 29.3663 13.2899 30H8C7.20435 30 6.44129 29.6839 5.87868 29.1213C5.31607 28.5587 5 27.7956 5 27V8C5 7.20435 5.31607 6.44129 5.87868 5.87868C6.44129 5.31607 7.20435 5 8 5Z" fill="url(#paint0_linear_1_124)" fill-opacity="0.24"/>
<path d="M8 30C7.20435 30 6.44129 29.6839 5.87868 29.1213C5.31607 28.5587 5 27.7956 5 27V8C5 7.20435 5.31607 6.44129 5.87868 5.87868C6.44129 5.31607 7.20435 5 8 5H32C32.7956 5 33.5587 5.31607 34.1213 5.87868C34.6839 6.44129 35 7.20435 35 8V27C35 27.7956 34.6839 28.5587 34.1213 29.1213C33.5587 29.6839 32.7956 30 32 30" stroke="white" stroke-linecap="round" stroke-linejoin="round"/>
<g opacity="0.4">
<path d="M25.5258 16.5791C25.9986 16.8597 26.5351 17 27.1354 17C27.5149 17 27.8663 16.9451 28.1898 16.8353C28.5164 16.7224 28.8041 16.5654 29.0529 16.3641C29.3048 16.1597 29.5117 15.9187 29.6734 15.6412C29.8352 15.3606 29.944 15.051 30 14.7124H28.9456C28.899 14.932 28.8196 15.1257 28.7077 15.2935C28.5988 15.4582 28.4635 15.5985 28.3018 15.7144C28.14 15.8303 27.9612 15.9172 27.7653 15.9752C27.5693 16.0331 27.3625 16.0621 27.1448 16.0621C26.7466 16.0621 26.3889 15.9645 26.0717 15.7693C25.7544 15.5741 25.5041 15.2874 25.3206 14.9092C25.1371 14.5279 25.0453 14.0597 25.0453 13.5046C25.0453 12.9525 25.1371 12.4858 25.3206 12.1046C25.5041 11.7203 25.7544 11.4305 26.0717 11.2353C26.3889 11.037 26.7466 10.9379 27.1448 10.9379C27.3656 10.9379 27.574 10.9684 27.7699 11.0294C27.969 11.0874 28.1478 11.1758 28.3064 11.2948C28.4682 11.4107 28.6035 11.554 28.7123 11.7248C28.8243 11.8926 28.9021 12.0878 28.9456 12.3105H30C29.9409 11.9475 29.8274 11.6227 29.6594 11.3359C29.4946 11.0492 29.2846 10.8068 29.0296 10.6085C28.7745 10.4102 28.4853 10.2593 28.1618 10.1556C27.8415 10.0519 27.4993 10 27.1354 10C26.5382 10 26.0033 10.1403 25.5305 10.4209C25.0577 10.7015 24.6861 11.1041 24.4155 11.6288C24.1449 12.1503 24.0096 12.7756 24.0096 13.5046C24.0096 14.2275 24.1433 14.8512 24.4108 15.3758C24.6814 15.8974 25.0531 16.2985 25.5258 16.5791Z" fill="white"/>
<path fill-rule="evenodd" clip-rule="evenodd" d="M11.75 15.1014L11.115 16.9086H10L12.5053 10.0916H13.7137L16.2097 16.9086H15.0993L14.4614 15.1014H11.75ZM13.1305 11.3315L14.1577 14.2413H12.0522L13.0745 11.3315H13.1305Z" fill="white"/>
<path fill-rule="evenodd" clip-rule="evenodd" d="M21.5886 16.6661C21.2433 16.8278 20.8001 16.9086 20.2589 16.9086H17.595V10.0916H20.147C20.6384 10.0916 21.0458 10.1709 21.3693 10.3295C21.6928 10.4881 21.9338 10.7032 22.0925 10.9746C22.2542 11.243 22.3351 11.545 22.3351 11.8805C22.3351 12.1642 22.2806 12.4036 22.1718 12.5988C22.066 12.794 21.9245 12.9496 21.7472 13.0655C21.5699 13.1814 21.3755 13.2668 21.164 13.3217V13.3857C21.3942 13.3979 21.6197 13.4711 21.8405 13.6053C22.0613 13.7395 22.2433 13.9302 22.3864 14.1772C22.5326 14.4212 22.6056 14.7201 22.6056 15.074C22.6056 15.4217 22.5217 15.7343 22.3537 16.0119C22.1889 16.2864 21.9338 16.5045 21.5886 16.6661ZM20.9261 14.0034C20.7208 13.8966 20.4798 13.8432 20.2029 13.8432H18.6447V16.0302H20.1563C20.6602 16.0302 21.021 15.9341 21.2387 15.7419C21.4564 15.5498 21.5653 15.3103 21.5653 15.0236C21.5653 14.8071 21.5093 14.6103 21.3973 14.4334C21.2884 14.2535 21.1314 14.1101 20.9261 14.0034ZM21.0007 11.2583C20.8017 11.0661 20.4953 10.97 20.0816 10.97H18.6447V13.0426H20.0537C20.2869 13.0426 20.4984 12.9984 20.6882 12.9099C20.8779 12.8215 21.0272 12.6964 21.136 12.5347C21.248 12.37 21.304 12.1794 21.304 11.9628C21.304 11.6822 21.2029 11.4474 21.0007 11.2583Z" fill="white"/>
</g>
<path d="M27 28C27 29.7135 26.3843 31.2832 25.3621 32.5C24.078 34.0285 22.1525 35 20 35C16.134 35 13 31.866 13 28C13 24.134 16.134 21 20 21C23.866 21 27 24.134 27 28Z" fill="url(#paint1_linear_1_124)" fill-opacity="0.24"/>
<path d="M25.3621 32.5C26.3843 31.2832 27 29.7135 27 28C27 24.134 23.866 21 20 21C16.134 21 13 24.134 13 28C13 31.866 16.134 35 20 35C22.1525 35 24.078 34.0285 25.3621 32.5ZM25.3621 32.5L28.8621 36" stroke="white" stroke-linecap="round" stroke-linejoin="round"/>
<path d="M17 28L19 30L23 26" stroke="white" stroke-linecap="round" stroke-linejoin="round"/>
<defs>
<linearGradient id="paint0_linear_1_124" x1="20" y1="5" x2="20" y2="30" gradientUnits="userSpaceOnUse">
<stop stop-color="white" stop-opacity="0"/>
<stop offset="1" stop-color="white"/>
</linearGradient>
<linearGradient id="paint1_linear_1_124" x1="20" y1="21" x2="20" y2="35" gradientUnits="userSpaceOnUse">
<stop stop-color="white" stop-opacity="0"/>
<stop offset="1" stop-color="white"/>
</linearGradient>
</defs>
</svg>
